<?xml version="1.0" encoding="utf-8"?>
<!-- Generator: Adobe Illustrator 18.0.0, SVG Export Plug-In . SVG Version: 6.00 Build 0)  -->
<!DOCTYPE svg PUBLIC "-//W3C//DTD SVG 1.1//EN" "http://www.w3.org/Graphics/SVG/1.1/DTD/svg11.dtd">
<svg version="1.1" id="Слой_1" xmlns="http://www.w3.org/2000/svg" xmlns:xlink="http://www.w3.org/1999/xlink" x="0px" y="0px"
	 viewBox="86.7 0 681.3 1024" enable-background="new 86.7 0 681.3 1024" xml:space="preserve">
<path fill="#000000"      d="
	M764.4,230.2c0,0,11-36-5.6-58.9c-7-9.7-31.9-16.4-31.9-16.4l-3.1-7.5c-2.2-1.3-5.3-2.2-5.3-2.2c-0.4-3.1,1.8-7.6,1.8-7.6
	c6.7,0,11.9-27.8,11.9-27.8c17.7-3.5,27.1-13.3,27.1-13.3c12-16.8-16-30.6-16-30.6s0.4-52.3-49.7-58.9c0,0-13.3-6.4-20.9-3.7l-4,1.4
	v3.2c0,0-28.3,13.3-30.6,40.3c0,0-25.8,2.7-21.3,19.5c0,0,1.2,12.9,25.1,20c0,0-4.3,7.1-0.8,16.8c0,0-0.8,17.7,1.4,22.2
	c0,0,0.9,5.3,0.9,8.9c0,0-1.3,12.9,13.3,15.5l3.6,2.2c0,0-9.3-1.3-12.9,0c0,0-8.4-5.3-11.5-5.3c0,0-6.2-10.2-12.9-9.3
	c0,0-7.3-7.5-13.9-7.5c0,0-2.7-3.1-5.9-2.2v-4.2c0,0-11.2-12.7-18.3-11.4c0,0-10.7-7.5-13.3-3.5L489.1,76c0,0-12.3-4.9-15.9-8.4
	c0,0-3.5-2.7-9.7-2.7c0,0-10.6-6.2-15.9-10.2c0,0-14.2-16-20.4-13.7c0,0-4-5.3-12-4.9c0,0-8-5.3-14.2-0.4c0,0-17.7-5.8-20-8.4
	L356.3,8.7c0,0-8.9-4-7.1,4.4c0,0,17.3,22.2,25.3,27.5c0,0,7.5,6.2,11.5,8.4c0,0-9.8,10.6-5.3,17.3l1.3,4.4c0,0-17.3,0-18.2,8
	c0,0-1.3,9.9,16.4,8.8h7.5l3.6,6.2c0,0,3.1,8.9,8.9,1.8l3.1,3.8c0,0,5.8,2.6,8.4-3.6c0,0,0.9-2.3-0.4-6.3c0,0,19.1,4.9,26.2,0.4
	c0,0,6.7,2.2,10.6,0.9c0,0,16,11.1,22.2,16c0,0,71.4,61.5,78.9,63.1c0,0,1.3,8.2,6.7,8.7c0,0,8.9,7.5,14.6,7.1l38.1,24.9
	c0,0-35.4,26.4-39.9,101c0,0-7.5,3-5.3,7.5l-15.5,4.3c-7.5,2.2-36.5,5.2-61.2,2.7c-13-1.4-18.7-4-18.7-4c-4.9-2.2-23-11.8-23-11.8
	c-5.8-5.8-12.4-2.7-12.4-2.7c-4-1.3-12.2-0.9-12.2-0.9l-49-62.7L99,515.5l179,185.1c17.9-44.3,233.6-283.9,233.6-283.9l-50.3-59.7
	c0,0,4.5-2,5.8-5.5c0,0,2.7-1.3,16.5,2.7c0,0,56.2,15.5,65.5,12.9l-0.9,2.5c0,0-18.8,39.9-12.8,46c0,0-21.8,47.5-18.1,52.7l7.5,4.1
	l-3.7,22.3c0,0-3.5,40.8-0.1,53.2c0,0-3.5,112.2,6.7,137c0,0-5.7,88.6,12.4,101.1c0,0,7.9,90.3,0,122c0,0-2,20.4,3.5,24.9
	c0,0-8.1,12.5-4.7,17c3.4,4.5,3.4,4.5,3.4,4.5s-10.7,17-26.2,19.2c0,0-30.3-0.2-38.2,13.4c0,0-5.7,7,0,13.8c0,0-2.7,6.7,5.7,9
	c0,0,38,6.9,59.4-1.1c0,0,18.8-7.9,24.2-3.4v4.8c0,0,11.6,2.1,30.3-1.5c0.5,1,1.5,2.1,2.4,3.1c0,0-2.2,6.8,6.4,8.7
	c0,0,39.1,4.9,60.1-4.2c0,0,19.3-8.9,24.8-4.7l0.3,4.8c0,0,13.9,6.2,37-0.8l-0.4-7.5c0,0,5-9.9,1-27c0,0,5.6-0.4,2.3-17.2
	c0,0-2.5-2.9-2-6.4c0,0,7.1-9.1,4.8-31.9c0,0,4.2-6,1.4-44.4c0,0-2.7-52.7-14.2-98.8c0,0,1.3-19.4-2.8-24.2c0,0,2.9-5.4,0.1-11.8
	c0,0,3.4-42.1-4.9-66.2c0,0,12.8-23.4,8.3-36.9c0,0-0.8-43.7,3-58.8c0,0,9-61-2.3-89.7c0,0,2.3-9,0.8-18.1c0,0,12.9-9.8,12.5-17.3
	c0,0-5.6-51.2,0-73.1c0,0,15.4-46.7,10.1-52.7l-2.3-5.3c0,0,6-8.3,3.4-27.9C747.4,300.1,769.7,256.8,764.4,230.2z M658.8,957.5
	c-0.3,5.7,3.6,4.3,3.6,4.3s-9.8,16.4-25.2,19.5c0,0-16.5,1.8-28.1,7.9c0.2-3.2,0-7.4-0.9-12.6c0,0,5.6-0.1,3.1-17.1
	c0,0-4.1-10.8-0.2-11.8c0,0,7.1-1.6,0.7-27.2c0,0,8.7-4.9,7.9-43.3c0,0,0-52.7-9-99.4c0,0,2.3-19.3-1.5-24.3c0,0,3.2-3.2,0.8-11.8
	c0,0,15.1-70.1,13.6-85.9l2.8,32.3c0,0,6.3,94.3,25.1,105.8c0,0,12.6,89.7,6.3,121.8c0,0-0.9,25.9,4.9,30.1
	C662.6,945.7,659.2,950.2,658.8,957.5z"/>
</svg>
